<svg width="51" height="35" viewBox="0 0 51 35" fill="none" xmlns="http://www.w3.org/2000/svg">
<path d="M3.05176e-05 17.5001C3.05176e-05 7.835 7.83503 0 17.5 0C27.165 0 35 7.835 35 17.5001C35 27.165 27.165 35 17.5 35C7.83503 35 3.05176e-05 27.165 3.05176e-05 17.5001ZM26.6336 17.5001C26.6336 12.4557 22.5443 8.36645 17.5 8.36645C12.4557 8.36645 8.36648 12.4557 8.36648 17.5001C8.36648 22.5444 12.4557 26.6336 17.5 26.6336C22.5443 26.6336 26.6336 22.5444 26.6336 17.5001Z" fill="url(#paint0_linear_2742_5565)"/>
<path d="M15.396 17.5001C15.396 7.835 23.231 0 32.8961 0C42.561 0 50.396 7.835 50.396 17.5001C50.396 27.165 42.561 35 32.8961 35C23.231 35 15.396 27.165 15.396 17.5001ZM42.0296 17.5001C42.0296 12.4557 37.9403 8.36645 32.8961 8.36645C27.8517 8.36645 23.7625 12.4557 23.7625 17.5001C23.7625 22.5444 27.8517 26.6336 32.8961 26.6336C37.9403 26.6336 42.0296 22.5444 42.0296 17.5001Z" fill="url(#paint1_linear_2742_5565)"/>
<defs>
<linearGradient id="paint0_linear_2742_5565" x1="28.9423" y1="26.9231" x2="3.36541" y2="5.04813" gradientUnits="userSpaceOnUse">
<stop stop-color="#E5EDED"/>
<stop offset="1" stop-color="#056D6C"/>
</linearGradient>
<linearGradient id="paint1_linear_2742_5565" x1="44.3383" y1="26.9231" x2="18.7614" y2="5.04811" gradientUnits="userSpaceOnUse">
<stop stop-color="#E5EDED"/>
<stop offset="1" stop-color="#056D6C"/>
</linearGradient>
</defs>
</svg>
