<svg width="602" height="146" viewBox="0 0 602 146" fill="none" xmlns="http://www.w3.org/2000/svg">
<path d="M12.4265 108V2.67883H27.7127V93.5915H75.3998V108H12.4265ZM122.851 110.194C115.001 110.194 108.102 108.488 102.153 105.074C96.253 101.612 91.6452 96.8096 88.3295 90.6659C85.0626 84.4734 83.4291 77.3057 83.4291 69.1628C83.4291 60.5323 85.0382 53.0477 88.2563 46.7089C91.5233 40.3702 96.0579 35.4698 101.86 32.0078C107.663 28.5459 114.416 26.8149 122.12 26.8149C130.165 26.8149 137.016 28.6922 142.672 32.4467C148.328 36.1524 152.546 41.4429 155.325 48.318C158.154 55.1931 159.275 63.3604 158.69 72.8198H143.404V67.2612C143.306 58.0943 141.551 51.3167 138.138 46.9283C134.773 42.54 129.629 40.3458 122.705 40.3458C115.05 40.3458 109.296 42.7594 105.444 47.5866C101.592 52.4138 99.6661 59.3865 99.6661 68.5046C99.6661 77.1838 101.592 83.9127 105.444 88.6911C109.296 93.4208 114.855 95.7857 122.12 95.7857C126.898 95.7857 131.019 94.713 134.481 92.5675C137.991 90.3733 140.722 87.2527 142.672 83.2056L157.666 87.9597C154.594 95.0299 149.937 100.515 143.696 104.416C137.455 108.268 130.507 110.194 122.851 110.194ZM94.6926 72.8198V60.898H151.083V72.8198H94.6926ZM207.647 145.301C203.405 145.301 199.284 144.643 195.286 143.326C191.336 142.01 187.728 140.06 184.461 137.475C181.194 134.94 178.488 131.795 176.343 128.04L190.459 120.873C192.165 124.237 194.603 126.699 197.773 128.26C200.942 129.82 204.282 130.6 207.793 130.6C212.133 130.6 215.838 129.82 218.91 128.26C221.982 126.748 224.298 124.456 225.858 121.385C227.467 118.313 228.248 114.509 228.199 109.975V87.8866H230.027V29.0091H243.558V110.121C243.558 112.218 243.485 114.217 243.339 116.119C243.193 118.02 242.924 119.922 242.534 121.823C241.413 127.138 239.267 131.527 236.098 134.989C232.977 138.45 228.979 141.035 224.103 142.741C219.276 144.448 213.79 145.301 207.647 145.301ZM206.476 110.194C199.114 110.194 192.751 108.366 187.387 104.709C182.072 101.052 177.952 96.0782 175.026 89.7882C172.149 83.4494 170.711 76.3305 170.711 68.4314C170.711 60.4836 172.174 53.389 175.099 47.1478C178.025 40.8578 182.17 35.9086 187.533 32.3004C192.946 28.6434 199.357 26.8149 206.769 26.8149C214.229 26.8149 220.495 28.6434 225.566 32.3004C230.686 35.9086 234.538 40.8578 237.122 47.1478C239.755 53.4378 241.071 60.5323 241.071 68.4314C241.071 76.3305 239.755 83.4251 237.122 89.7151C234.489 96.0051 230.612 101.003 225.493 104.709C220.373 108.366 214.034 110.194 206.476 110.194ZM208.597 96.3708C213.62 96.3708 217.716 95.1762 220.885 92.7869C224.054 90.3977 226.37 87.1064 227.833 82.9131C229.296 78.7197 230.027 73.8925 230.027 68.4314C230.027 62.9703 229.272 58.1431 227.76 53.9498C226.297 49.7564 224.006 46.4895 220.885 44.149C217.813 41.8086 213.888 40.6383 209.109 40.6383C204.038 40.6383 199.869 41.8817 196.603 44.3685C193.336 46.8552 190.898 50.1953 189.289 54.3886C187.728 58.5819 186.948 63.2629 186.948 68.4314C186.948 73.6487 187.728 78.3784 189.289 82.6205C190.898 86.8139 193.287 90.1539 196.456 92.6407C199.674 95.1274 203.721 96.3708 208.597 96.3708ZM286.403 110.194C280.552 110.194 275.652 109.121 271.702 106.976C267.753 104.782 264.754 101.905 262.706 98.3456C260.707 94.7373 259.707 90.7878 259.707 86.4969C259.707 82.4986 260.414 78.9879 261.828 75.9648C263.242 72.9417 265.339 70.3818 268.118 68.2851C270.898 66.1397 274.311 64.4087 278.358 63.0922C281.869 62.0683 285.842 61.1662 290.28 60.3861C294.717 59.6059 299.373 58.8745 304.249 58.1919C309.174 57.5092 314.05 56.8266 318.877 56.1439L313.319 59.2158C313.416 53.0233 312.1 48.4399 309.369 45.4656C306.687 42.4424 302.055 40.9309 295.473 40.9309C291.328 40.9309 287.525 41.9061 284.063 43.8565C280.601 45.7581 278.187 48.9275 276.822 53.3646L262.56 48.9763C264.51 42.1986 268.216 36.8107 273.677 32.8124C279.187 28.8141 286.501 26.8149 295.619 26.8149C302.689 26.8149 308.833 28.0339 314.05 30.4719C319.316 32.8611 323.168 36.6644 325.606 41.8817C326.874 44.466 327.654 47.1965 327.947 50.0734C328.239 52.9502 328.385 56.0464 328.385 59.3621V108H314.855V89.9345L317.488 92.275C314.221 98.3212 310.052 102.831 304.981 105.806C299.958 108.731 293.766 110.194 286.403 110.194ZM289.109 97.6873C293.449 97.6873 297.179 96.9315 300.3 95.42C303.42 93.8597 305.932 91.8849 307.833 89.4957C309.735 87.1064 310.978 84.6197 311.563 82.0354C312.392 79.6949 312.855 77.0619 312.953 74.1363C313.099 71.2107 313.172 68.8703 313.172 67.1149L318.146 68.9434C313.319 69.6748 308.93 70.3331 304.981 70.9182C301.031 71.5033 297.447 72.0884 294.229 72.6735C291.06 73.2099 288.232 73.8681 285.745 74.6483C283.648 75.3797 281.771 76.2574 280.113 77.2813C278.504 78.3053 277.212 79.5487 276.237 81.0114C275.31 82.4742 274.847 84.254 274.847 86.3506C274.847 88.3986 275.359 90.3002 276.383 92.0555C277.407 93.7621 278.967 95.1274 281.064 96.1514C283.161 97.1753 285.842 97.6873 289.109 97.6873ZM348.841 108V0.484636H364.127V108H348.841Z" fill="#056D6C"/>
<path d="M415.889 81.4503C412.183 81.4503 408.819 80.597 405.796 78.8904C402.821 77.1838 400.432 74.8677 398.628 71.9421C396.873 68.9678 395.995 65.6277 395.995 61.922C395.995 58.2162 396.873 54.9006 398.628 51.975C400.432 49.0006 402.821 46.6602 405.796 44.9536C408.819 43.247 412.183 42.3937 415.889 42.3937C419.351 42.3937 422.52 43.247 425.397 44.9536C428.323 46.6602 430.639 49.0006 432.345 51.975C434.101 54.9006 434.979 58.2162 434.979 61.922C434.979 65.6277 434.101 68.9678 432.345 71.9421C430.639 74.8677 428.323 77.1838 425.397 78.8904C422.52 80.597 419.351 81.4503 415.889 81.4503Z" fill="#056D6C"/>
<rect width="135" height="105" transform="translate(466.276 3)" fill="#056D6C"/>
<path d="M469.202 108L503.431 2.67883H525.446L559.676 108H543.804L512.281 11.8944H516.231L485.073 108H469.202ZM486.975 84.2296V69.8942H541.976V84.2296H486.975ZM574.26 108V2.67883H589.546V108H574.26Z" fill="white"/>
</svg>
